<svg id="Layer_1" data-name="Layer 1" xmlns="http://www.w3.org/2000/svg" viewBox="0 0 408 476"><defs><style>.cls-1{fill:#8cc63f;}.cls-2{fill:#322796;}.cls-3{fill:#6e4493;}.cls-4{fill:#52a3cc;}.cls-5{fill:#d8c836;}</style></defs><title>Business_Logo</title><path class="cls-1" d="M528,135H324A135.95,135.95,0,0,0,188,271V475H324V271H460A136,136,0,0,0,596,135Z" transform="translate(-188 -135)"/><path class="cls-2" d="M324,271V407A135.95,135.95,0,0,0,460,271Z" transform="translate(-188 -135)"/><path class="cls-3" d="M188,475V611A136,136,0,0,0,324,475V407H188Z" transform="translate(-188 -135)"/><path class="cls-4" d="M358,280.1a67.68,67.68,0,0,0-34-9.1h0A135.95,135.95,0,0,0,188,407v68H324V407h0a68,68,0,0,0,34-126.9Z" transform="translate(-188 -135)"/><path class="cls-5" d="M256,407h0a68,68,0,1,0,68,68h0V407Z" transform="translate(-188 -135)"/></svg>