<svg id="Layer_1" data-name="Layer 1" xmlns="http://www.w3.org/2000/svg" viewBox="0 0 1920.21 397.2"><defs><style>.cls-1{fill:#e6e6e6;}</style></defs><title>background</title><path class="cls-1" d="M170,886.47l54.43,94.28L170,1075H61.16L6.72,980.75l54.43-94.28H170m3.46-6H57.69L-.21,980.75,57.69,1081h115.8l57.9-100.28-57.9-100.28Z" transform="translate(0.21 -685.8)"/><path class="cls-1" d="M338.93,789.13l54.43,94.28L338.93,977.7H230.07l-54.43-94.28,54.43-94.28H338.93m3.46-6H226.6L168.7,883.42,226.6,983.7H342.4l57.9-100.28L342.4,783.13Z" transform="translate(0.21 -685.8)"/><path class="cls-1" d="M507.84,886.47l54.43,94.28L507.84,1075H399l-54.43-94.28L399,886.47H507.84m3.46-6H395.51l-57.9,100.28L395.51,1081h115.8l57.9-100.28-57.9-100.28Z" transform="translate(0.21 -685.8)"/><path class="cls-1" d="M677.07,789.13l54.43,94.28L677.07,977.7H568.2l-54.43-94.28,54.43-94.28H677.07m3.46-6H564.73l-57.9,100.28,57.9,100.28h115.8l57.9-100.28-57.9-100.28Z" transform="translate(0.21 -685.8)"/><path class="cls-1" d="M846,886.47l54.43,94.28L846,1075H737.11l-54.43-94.28,54.43-94.28H846m3.46-6H733.64l-57.9,100.28L733.64,1081h115.8l57.9-100.28-57.9-100.28Z" transform="translate(0.21 -685.8)"/><path class="cls-1" d="M846,691.8l54.43,94.28L846,880.37H737.11l-54.43-94.28,54.43-94.28H846m3.46-6H733.64l-57.9,100.28,57.9,100.28h115.8l57.9-100.28L849.44,685.8Z" transform="translate(0.21 -685.8)"/><path class="cls-1" d="M1015.2,789.13l54.43,94.28L1015.2,977.7H906.33l-54.43-94.28,54.43-94.28H1015.2m3.46-6H902.86L845,883.42l57.9,100.28h115.8l57.9-100.28-57.9-100.28Z" transform="translate(0.21 -685.8)"/><path class="cls-1" d="M1183.12,887.45l54.43,94.28L1183.12,1076H1074.25l-54.43-94.28,54.43-94.28h108.87m3.46-6h-115.8l-57.9,100.28,57.9,100.28h115.8l57.9-100.28-57.9-100.28Z" transform="translate(0.21 -685.8)"/><path class="cls-1" d="M1351.6,790.12,1406,884.4l-54.43,94.28H1242.73l-54.43-94.28,54.43-94.28H1351.6m3.46-6h-115.8l-57.9,100.28,57.9,100.28h115.8L1413,884.4l-57.9-100.28Z" transform="translate(0.21 -685.8)"/><path class="cls-1" d="M1520.51,887.45l54.43,94.28L1520.51,1076H1411.64l-54.43-94.28,54.43-94.28h108.87m3.46-6h-115.8l-57.9,100.28,57.9,100.28H1524l57.9-100.28L1524,881.45Z" transform="translate(0.21 -685.8)"/><path class="cls-1" d="M1689.73,790.12l54.43,94.28-54.43,94.28H1580.86l-54.43-94.28,54.43-94.28h108.87m3.46-6H1577.4L1519.5,884.4l57.9,100.28h115.8l57.9-100.28-57.9-100.28Z" transform="translate(0.21 -685.8)"/><path class="cls-1" d="M1858.64,888.43l54.43,94.28L1858.64,1077H1749.77l-54.43-94.28,54.43-94.28h108.87m3.46-6H1746.3l-57.9,100.28L1746.3,1083h115.8L1920,982.72l-57.9-100.28Z" transform="translate(0.21 -685.8)"/><path class="cls-1" d="M1858.64,693.77,1913.07,788l-54.43,94.28H1749.77L1695.33,788l54.43-94.28h108.87m3.46-6H1746.3L1688.41,788l57.9,100.28h115.8L1920,788l-57.9-100.28Z" transform="translate(0.21 -685.8)"/></svg>