<svg id="Layer_1" data-name="Layer 1" xmlns="http://www.w3.org/2000/svg" viewBox="0 0 1920 1083"><defs><style>.cls-1{fill:#828282;}.cls-2{fill:#4c4c4c;}.cls-3{fill:#8cc63f;}.cls-4{fill:#322796;}.cls-5{fill:#6e4493;}.cls-6{fill:#52a3cc;}.cls-7{fill:#d8c836;}</style></defs><title>background</title><polygon class="cls-1" points="480.06 0 0 0 0 1080 1560.06 1080 480.06 0"/><polygon class="cls-2" points="1920 0 480.06 0 1563.06 1083 1920 1083 1920 0"/><path class="cls-3" d="M1775.56,202.56,1593.28,20.27Q1582.77,9.76,1571.8,0H885.6q-10.95,9.78-21.47,20.27L317.27,567.13,681.85,931.7l364.57-364.57L1228.7,384.85,1411,567.13l182.29,182.29A513.57,513.57,0,0,0,1920,899V347Z"/><path class="cls-4" d="M1228.7,384.85,864.13,749.42c134.94,134.94,326.07,179.43,498.07,133.5a513.19,513.19,0,0,0,231.07-133.5Z"/><path class="cls-5" d="M499.56,384.85,317.27,567.13,0,884.41v89.18C202.3,1131.91,495.59,1118,681.85,931.7L864.13,749.42Z"/><path class="cls-6" d="M1295.46,500.38a256.6,256.6,0,0,0-66.75-115.54h0c-134.94-134.94-326.07-179.43-498.07-133.5a513.19,513.19,0,0,0-231.07,133.5L317.27,567.13,681.85,931.7,864.13,749.42h0a257.82,257.82,0,0,0,431.32-249Z"/><path class="cls-7" d="M681.86,567.15h0a257.85,257.85,0,1,0,0,364.57h0L864.13,749.42Z"/></svg>